<svg id="Layer_1" enable-background="new 0 0 256 256" height="512" viewBox="0 0 256 256" width="512" xmlns="http://www.w3.org/2000/svg"><g><g><path d="m105.948 27.51-62.43 53.771c-1.399 1.205-2.203 2.959-2.203 4.805v155.573c0 3.502 2.839 6.341 6.341 6.341h124.861c3.502 0 6.341-2.839 6.341-6.341v-155.573c0-1.846-.804-3.6-2.203-4.805l-62.43-53.771c-2.379-2.049-5.898-2.049-8.277 0z" fill="#a4c9ff"/></g><g><circle cx="109.943" cy="156.092" fill="#ffea92" r="50.134"/></g><g><circle cx="110.086" cy="50.043" fill="#4671c6" r="9.477"/></g><g><path d="m172.517 250h-124.861c-4.599 0-8.341-3.742-8.341-8.341v-155.573c0-2.43 1.056-4.734 2.897-6.32l62.43-53.772c3.155-2.716 7.734-2.715 10.887 0l62.43 53.771c1.842 1.586 2.898 3.89 2.898 6.32v155.573c.001 4.6-3.741 8.342-8.34 8.342zm-65.264-220.975-62.43 53.771c-.958.825-1.508 2.024-1.508 3.289v155.573c0 2.394 1.947 4.341 4.341 4.341h124.861c2.394 0 4.341-1.947 4.341-4.341v-155.572c0-1.265-.55-2.464-1.508-3.29l-62.43-53.771c-1.616-1.391-4.052-1.391-5.667 0z" fill="#3762cc"/></g><g><path d="m110.086 61.52c-6.329 0-11.478-5.149-11.478-11.478s5.149-11.477 11.478-11.477 11.477 5.148 11.477 11.477-5.148 11.478-11.477 11.478zm0-18.955c-4.123 0-7.478 3.354-7.478 7.477s3.354 7.478 7.478 7.478 7.477-3.354 7.477-7.478-3.354-7.477-7.477-7.477z" fill="#3762cc"/></g><g><path d="m110.086 52.388c-3.794 0-6.87-3.076-6.87-6.87v-30.648c0-3.794 3.076-6.87 6.87-6.87 3.794 0 6.87 3.076 6.87 6.87v30.649c0 3.794-3.076 6.869-6.87 6.869z" fill="#e0ebfc"/></g><g><path d="m110.086 54.388c-4.891 0-8.87-3.979-8.87-8.87v-30.648c0-4.891 3.979-8.87 8.87-8.87s8.87 3.979 8.87 8.87v30.649c0 4.89-3.979 8.869-8.87 8.869zm0-44.388c-2.685 0-4.87 2.185-4.87 4.87v30.649c0 2.685 2.185 4.87 4.87 4.87s4.87-2.185 4.87-4.87v-30.649c0-2.685-2.185-4.87-4.87-4.87z" fill="#3762cc"/></g><g><path d="m126.709 158.403c-.777-1.773-1.9-3.319-3.333-4.591-1.343-1.226-2.884-2.176-4.583-2.823-1.585-.604-3.71-1.275-6.321-1.999v-12.898c2.293.929 3.724 2.57 4.366 5.001.714 2.61 2.314 3.934 4.754 3.934 1.298 0 2.418-.462 3.331-1.374.912-.912 1.374-2.01 1.374-3.263 0-1.074-.292-2.264-.869-3.537-.569-1.25-1.382-2.48-2.412-3.649-1.323-1.555-2.896-2.731-4.674-3.498-1.644-.709-3.616-1.203-5.87-1.469v-3.185c0-2.834-1.662-3.258-2.653-3.258-1.195 0-2.619.577-2.619 3.325v3.111c-4.52.466-8.051 1.948-10.5 4.407-2.54 2.553-3.828 5.863-3.828 9.838 0 3.047.662 5.585 1.968 7.542 1.297 1.948 3.013 3.47 5.1 4.525 1.956.989 4.397 1.899 7.26 2.708v14.582c-1.131-.388-2.065-.906-2.783-1.544-.853-.758-1.496-1.603-1.914-2.51-.437-.95-.961-2.353-1.558-4.163-.302-.957-.854-1.713-1.643-2.248-.776-.525-1.73-.792-2.836-.792-1.389 0-2.568.486-3.502 1.446-.932.956-1.404 2.052-1.404 3.258 0 1.516.33 3.08.98 4.648.647 1.561 1.659 3.083 3.006 4.523 1.35 1.441 3.052 2.66 5.06 3.624 1.891.908 4.107 1.527 6.594 1.843v8.638c0 1.141.187 1.979.571 2.563.422.64 1.134.965 2.116.965 1.357 0 1.923-.659 2.16-1.213.287-.676.426-1.686.426-3.088v-7.92c3.079-.315 5.791-1.172 8.067-2.55 2.397-1.453 4.241-3.355 5.479-5.657 1.234-2.294 1.859-4.79 1.859-7.418 0-2.097-.393-4.06-1.169-5.834zm-9.861 11.387c-1.043 1.159-2.514 1.976-4.375 2.436v-13.416c1.936.672 3.436 1.475 4.466 2.389 1.098.975 1.632 2.333 1.632 4.15-.001 1.703-.564 3.156-1.723 4.441zm-13.224-31.949c.874-.762 2.075-1.404 3.577-1.913v11.472c-1.614-.647-2.847-1.356-3.668-2.113-.875-.806-1.318-2.034-1.318-3.652-.001-1.725.46-2.967 1.409-3.794z" fill="#eaa97d"/></g><g><path d="m213.098 59.105c-2.265-10.081-8.578-19.903-10.857-23.22-.4-.582-1.263-.576-1.661.007-7.001 10.241-7.848 16.351-7.652 19.252.034.501-.603.739-.906.339-11.779-15.573-16.032-33.305-17.299-40.073-.173-.924-1.41-1.122-1.867-.3l-.272.49c-1.676 3.016-8.09 10.528-8.09 10.528-35.575 42.703-16.194 62.458-16.194 62.458l.006-.002c6.035 10.613 18.046 17.775 31.814 17.502 15.869-.315 29.314-10.68 33.254-24.608l.007.003c3.092-9.364-.283-22.376-.283-22.376z" fill="#f9a7a7"/></g><g><path d="m199.575 77.919c-1.37-6.08-5.19-12.002-6.569-14.003-.242-.351-.764-.347-1.005.004-4.236 6.176-4.748 9.861-4.63 11.61.02.302-.365.446-.548.204-7.127-9.391-9.7-20.085-10.467-24.166-.105-.557-.853-.677-1.129-.181l-.165.296c-1.014 1.819-4.895 6.349-4.895 6.349-21.524 25.752-9.797 37.666-9.797 37.666l.003-.001c3.652 6.4 10.919 10.719 19.25 10.554 9.602-.19 17.737-6.441 20.121-14.84l.004.002c1.869-5.647-.173-13.494-.173-13.494z" fill="#ffea92"/></g><g><path d="m179.358 108.093c-13.664 0-26.099-6.951-32.66-18.293-2.073-2.292-18.663-23.032 16.258-64.952 1.764-2.066 6.584-7.89 7.879-10.219l.272-.49c.623-1.123 1.847-1.712 3.111-1.508 1.265.206 2.234 1.152 2.47 2.411 1.171 6.251 4.853 21.613 14.568 35.938.744-3.813 2.82-9.119 7.673-16.217.56-.82 1.489-1.311 2.483-1.312h.003c.99 0 1.915.486 2.474 1.3 2.58 3.755 8.823 13.584 11.145 23.85.144.555 3.486 13.695.246 23.505-.009.029-.02.057-.03.085-4.309 14.93-18.711 25.567-35.09 25.893-.268.006-.535.009-.802.009zm-29.681-20.965c.142.134.267.29.368.467 5.926 10.422 17.43 16.766 30.036 16.491 14.696-.292 27.595-9.813 31.369-23.153.022-.081.05-.16.083-.236 2.779-8.673-.339-20.967-.371-21.09-.005-.021-.011-.042-.015-.063-1.966-8.75-7.226-17.483-9.734-21.303-5.99 9.118-6.65 14.392-6.49 16.77.075 1.114-.577 2.125-1.622 2.515-1.044.392-2.2.056-2.874-.834-10.78-14.252-15.389-30.239-17.168-38.433-2.45 3.545-7.018 8.904-7.245 9.169-17.777 21.34-21.217 36.525-20.971 45.502.245 8.916 4.105 13.598 4.634 14.198z" fill="#3762cc"/></g></g></svg>