<svg height="512" viewBox="0 0 512 512" width="512" xmlns="http://www.w3.org/2000/svg" xmlns:xlink="http://www.w3.org/1999/xlink"><linearGradient id="linear-gradient" gradientUnits="userSpaceOnUse" x1="48" x2="464" y1="248" y2="248"><stop offset="0" stop-color="#35e0d1"/><stop offset="1" stop-color="#f07ff1"/></linearGradient><path d="m440 80h-40v-8a24 24 0 0 0 -48 0v8h-32v-8a24 24 0 0 0 -48 0v8h-32v-8a24 24 0 0 0 -48 0v8h-40v-8a24 24 0 0 0 -48 0v8h-32a24.027 24.027 0 0 0 -24 24v320a24.027 24.027 0 0 0 24 24h368a24.027 24.027 0 0 0 24-24v-320a24.027 24.027 0 0 0 -24-24zm-72-8a8 8 0 0 1 16 0v32a8 8 0 0 1 -16 0zm-80 0a8 8 0 0 1 16 0v32a8 8 0 0 1 -16 0zm-80 0a8 8 0 0 1 16 0v32a8 8 0 0 1 -16 0zm-88 0a8 8 0 0 1 16 0v32a8 8 0 0 1 -16 0zm328 352a8.005 8.005 0 0 1 -8 8h-368a8.005 8.005 0 0 1 -8-8v-264h384zm0-280h-384v-40a8.005 8.005 0 0 1 8-8h32v8a24 24 0 0 0 48 0v-8h40v8a24 24 0 0 0 48 0v-8h32v8a24 24 0 0 0 48 0v-8h32v8a24 24 0 0 0 48 0v-8h40a8.005 8.005 0 0 1 8 8zm-271.227 162.461a7.992 7.992 0 0 0 7.407-8.547 72.02 72.02 0 1 1 37.305 58.051l14.687-16.6a8.007 8.007 0 0 0 -4.531-13.172l-45.86-8.539a8 8 0 0 0 -9.343 9.235l8.75 50.476a8 8 0 0 0 13.874 3.938l11.563-13.068a88.036 88.036 0 1 0 -42.4-69.182 7.867 7.867 0 0 0 8.548 7.408zm21.336 51.773-3.937-22.742 20.656 3.852zm65.938-113.414v44l28.8 21.6a8 8 0 1 1 -9.594 12.8l-32-24a8 8 0 0 1 -3.2-6.4v-48a8 8 0 0 1 16 0zm71.953 139.18h16v16h-16zm48 16h-16v-16h16zm32 0h-16v-16h16z" fill="url(#linear-gradient)"/></svg>