<svg height="512" viewBox="0 0 512 512" width="512" xmlns="http://www.w3.org/2000/svg"><g id="Beauty_Concealer_Face" data-name="Beauty Concealer Face"><g id="Flat"><path d="m8 511.38a8 8 0 0 1 -8-8v-495.38a8 8 0 0 1 8-8h288a8 8 0 0 1 8 8v288a8 8 0 0 1 -1.431 4.566l-38.59 55.52c-29.206 42.044-73.879 81.734-125.803 111.754-47.15 27.26-95.814 43.54-130.176 43.54z" fill="#ffdfd4"/><path d="m0 422.67v80.71a8 8 0 0 0 8 8c34.362 0 83.026-16.276 130.176-43.54 51.919-30.02 96.6-69.71 125.8-111.754l38.59-55.52a8 8 0 0 0 1.434-4.566v-140.425c-47.784 134.193-162.515 236.625-304 267.095z" fill="#f9d4c7"/><path d="m257.662 291.882a8 8 0 0 1 -5.657-2.343l-33.941-33.939a8 8 0 0 1 -1.933-8.187l11.314-33.941a8 8 0 0 1 13.246-3.127l45.255 45.255a8 8 0 0 1 0 11.314l-22.627 22.627a8 8 0 0 1 -5.657 2.341z" fill="#f4c2b5"/><path d="m253.657 130.343-24-24a8 8 0 0 0 -11.314 0c-.3.3-30.259 29.657-82.343 29.657h-72a8 8 0 0 0 0 16h72a146.384 146.384 0 0 0 57.268-11.426c.026.027.049.056.075.083l17 17a8 8 0 0 0 11.314-11.314l-13.257-13.256a125.917 125.917 0 0 0 15.19-10.187l18.753 18.753a8 8 0 0 0 11.314-11.314z" fill="#424242"/><path d="m40 104a8 8 0 0 1 -7.965-8.724c.091-1 2.444-24.715 21.776-48.342 17.516-21.411 52.935-46.934 122.189-46.934 40.8 0 60.44 17.225 69.729 31.674a65.277 65.277 0 0 1 10.271 32.326 8 8 0 0 1 -12.24 6.784c-25.552-15.97-50.602-22.784-83.76-22.784-34.5 0-82.493 13.922-113.753 53a8 8 0 0 1 -6.247 3z" fill="#c97e67"/><path d="m8 384a8 8 0 0 1 -8-8v-32a8 8 0 0 1 2.457-5.769 41.3 41.3 0 0 0 4.373-5.306c4.026-5.454 9.542-12.925 21.534-12.925 21.929 0 73.087 22.147 78.848 24.673a8 8 0 0 1 -.027 14.666c-2.321 1.007-57.31 24.661-99.185 24.661z" fill="#e56161"/><path d="m8 432a8 8 0 0 1 -8-8v-48a8 8 0 0 1 8-8c38.53 0 92.278-23.106 92.817-23.339a8 8 0 0 1 11.183 7.339 76.438 76.438 0 0 1 -17.984 47.8c-18.085 21.365-47.025 32.2-86.016 32.2z" fill="#d65858"/><path d="m216 208a61.956 61.956 0 0 1 -61.465 46.915l-19.03-.417c-45.483-3.122-75.768-11.906-95.361-27.648a21.6 21.6 0 0 1 23.181-36.185c34.435 17.135 103.975 17.335 104.675 17.335z" fill="#f4c2b5"/><path d="m285.947 331.48c-.219 0-.44-.008-.661-.027a8 8 0 0 1 -5.849-3.323l-28.285-39.6a8 8 0 0 1 .853-10.306l22.627-22.624a8 8 0 0 1 10.306-.853l39.6 28.284a8 8 0 0 1 1.008 12.167l-33.946 33.939a8 8 0 0 1 -5.653 2.343z" fill="#424242"/><path d="m471.576 512a40.014 40.014 0 0 1 -28.285-11.561l-168.659-166.425a7.821 7.821 0 0 1 0-11.164l45.255-44.65a8.076 8.076 0 0 1 11.314 0l168.659 166.42a39.1 39.1 0 0 1 0 55.819 40.007 40.007 0 0 1 -28.284 11.561z" fill="#ffd740"/><circle cx="280" cy="104" fill="#fff5f2" r="8"/><circle cx="280" cy="144" fill="#fff5f2" r="8"/><g fill="#ffe7a4"><circle cx="332" cy="316" r="12"/><circle cx="360" cy="336" r="8"/><circle cx="384" cy="360" r="8"/></g><path d="m494.418 439.25a111.83 111.83 0 0 1 -72.69 39.911l21.563 21.278a40.38 40.38 0 0 0 56.569 0 39.1 39.1 0 0 0 0-55.819z" fill="#ffc400"/></g></g></svg>